<svg width="78" height="76" viewBox="0 0 78 76" fill="none" xmlns="http://www.w3.org/2000/svg">
<path d="M39.7 1.40004C38.8 1.50004 38.3 1.70004 38.3 2.40004C38.2 3.00004 38.7 3.50004 39.2 3.60004H39.4C40 3.60004 40.5 3.10004 40.5 2.40004V2.30004C40.6 1.80004 40.3 1.40004 39.7 1.40004C39.8 1.40004 39.8 1.40004 39.7 1.40004ZM59.9 8.50004V8.30004C59.4 8.20004 59 8.00004 58.5 7.90004C56.5 7.40004 54.4 6.90004 52.4 6.30004C50.8 5.80004 49.3 5.30004 47.7 4.90004C45.6 4.30004 43.4 3.90004 41.4 3.20004C41.2 3.10004 41.1 3.20004 41 3.40004C40.7 4.00004 40.1 4.30004 39.4 4.20004C39.2 4.20004 39 4.20004 38.9 4.40004C38.6 4.70004 38.1 4.80004 37.6 4.70004C37.3 4.60004 37.2 4.40004 37.2 4.10004C37.3 3.60004 37 3.50004 36.6 3.60004H36.5C34.6 3.90004 32.6 4.30004 30.7 4.70004C28.4 5.10004 26.2 5.70004 24 6.20004C22.4 6.60004 20.8 6.90004 19.2 7.40004C17.9 7.80004 16.6 8.20004 15.2 8.40004C14.9 8.40004 14.6 8.50004 14.3 8.60004C14.7 8.70004 15.1 8.70004 15.6 8.70004C17 8.60004 18.4 8.70004 19.8 8.60004C22.1 8.60004 24.4 8.70004 26.7 8.70004C28.6 8.70004 30.5 8.80004 32.4 8.70004C34 8.70004 35.6 8.50004 37.2 8.60004C39.9 8.80004 42.5 8.70004 45.2 8.70004H49.5C50.3 8.70004 51 8.80004 51.8 8.70004C53.3 8.60004 54.7 8.50004 56.2 8.50004H59.9ZM75.5 74C74.9 73.2 74.2 72.5 73.4 71.8C73.1 71.5 72.8 71.2 72.4 71C71.4 70.5 70.4 69.7 69.7 68.8C69.5 68.6 69.4 68.4 69.2 68.2C69.1 68.1 69 68.1 68.9 68.1C66.9 68.4 65 68.5 63 68.5C60.8 68.6 58.6 68.7 56.3 68.5C54.5 68.3 52.8 68.3 51 68.4C49.3 68.5 47.7 68.8 46 68.8H43.5C42.2 68.8 40.9 68.9 39.7 68.8C38.8 68.8 38 68.7 37.1 68.7C33.9 68.7 30.7 68.7 27.5 68.8C25.4 68.8 23.4 68.7 21.3 68.8C20.2 68.8 19.2 68.7 18.1 68.7C16.7 68.8 15.4 68.7 14 68.7C13.2 68.6 12.5 68.6 11.7 68.7C11 68.8 10.3 68.8 9.7 68.8C9.5 68.8 9.4 68.8 9.2 69C9 69.2 8.7 69.4 8.5 69.7C8 70.3 7.4 70.7 6.7 71.1C5.4 72 4.2 73 3 74.2C2.9 74.3 2.9 74.4 3.1 74.5C3.6 74.7 4.1 74.8 4.7 74.6L5.6 74.3C7.7 73.9 9.9 73.7 12.1 73.8C14.2 73.8 16.2 74 18.3 74.1C19.6 74.1 20.8 74.3 22.1 74.3C23.8 74.2 25.4 74.4 27.1 74.4C28.6 74.4 30.1 74.5 31.6 74.5C32.9 74.5 34.3 74.5 35.6 74.4C38.2 74.2 40.7 74.1 43.3 74.1H50.1C52.6 74.1 55.1 74.1 57.6 74.2C58.8 74.3 60 74.2 61.1 74.2C62.1 74.1 63.2 74 64.2 74.1C65.4 74.2 66.6 74.3 67.8 74.3C68.6 74.4 69.5 74.4 70.3 74.3C71.3 74.2 72.4 74.2 73.4 74.3C74 74 74.7 74 75.5 74ZM68.6 14.3C69 14.4 69.2 14.1 69.4 13.9C70.3 13 71.2 12.2 72.2 11.5C73 10.9 73.8 10.4 74.5 9.80004C74.6 9.70004 74.8 9.60004 74.7 9.50004C74.6 9.40004 74.5 9.40004 74.4 9.30004C73 9.30004 71.7 9.20004 70.3 9.20004C66.8 9.30004 63.3 9.40004 59.8 9.40004C58.2 9.40004 56.7 9.40004 55.1 9.50004C52.6 9.70004 50 9.70004 47.5 9.60004H40.8C39.7 9.60004 38.6 9.50004 37.5 9.50004C36.1 9.40004 34.7 9.50004 33.3 9.60004C31.9 9.70004 30.4 9.70004 29 9.60004C27.5 9.60004 25.9 9.50004 24.4 9.50004C23.2 9.50004 22 9.40004 20.7 9.40004H15C13.6 9.40004 12.1 9.10004 10.7 9.10004C8.1 9.00004 5.4 9.10004 2.8 9.40004C2.7 9.40004 2.6 9.40004 2.6 9.60004C2.6 9.70004 2.7 9.80004 2.7 9.90004C3.5 10.5 4.3 11.2 5 12C6.1 13.2 7.3 14.3 8.6 15.3C8.7 15.4 8.8 15.5 9 15.5C10.3 15.5 11.6 15.6 12.9 15.5C14.3 15.4 15.8 15.3 17.2 15.3C18.7 15.3 20.1 15.1 21.6 15C23.6 14.9 25.5 14.8 27.5 14.7C28.1 14.7 28.8 14.8 29.4 14.7C32 14.6 34.7 14.6 37.3 14.6C38.5 14.6 39.7 14.7 40.9 14.7C43.4 14.6 45.9 14.5 48.5 14.5C51.2 14.5 53.8 14.4 56.5 14.4C57.3 14.4 58 14.3 58.8 14.3C60.5 14.3 62.2 14.4 63.9 14.4C65.3 14.3 67 14.2 68.6 14.3ZM75.7 9.70004C75.5 9.70004 75.4 9.90004 75.3 10C74.9 10.4 74.4 10.7 74 11.1C72.6 12.1 71.2 13.2 70 14.4C69.4 14.9 69.1 15.6 69.2 16.4C69.3 16.6 69.3 16.8 69.3 17C69.4 18.2 69.4 19.4 69.5 20.6L69.8 25.7C69.9 26.5 69.9 27.4 69.8 28.2C69.7 29.1 69.7 30 69.8 30.9C70.1 32.9 70.2 34.9 70.2 36.9C70.1 37.9 70.2 38.9 70.4 39.9C70.5 40.4 70.5 40.9 70.5 41.4C70.4 43 70.4 44.5 70.3 46.1C70.3 47.3 70.4 48.5 70.4 49.7V54.4C70.5 56.9 70.5 59.5 70.3 62C70.2 63.3 70.1 64.5 69.8 65.7C69.4 66.5 69.6 67.5 70.3 68.1C70.9 68.8 71.6 69.4 72.3 69.9C73.1 70.4 73.8 70.9 74.4 71.6C74.9 72 75.3 72.4 75.7 73C75.8 73.2 76 73.3 76.2 73.4C76.2 73.4 76.3 73.5 76.4 73.4C76.5 73.3 76.4 73.3 76.4 73.2C76.3 71.8 76.3 70.4 76.3 69C76.3 66.5 76 64 76.2 61.5C76.4 59.4 76.1 57.3 76.1 55.2C76.1 53.5 75.9 51.9 76 50.2C76.1 48.6 76 47.1 76.1 45.5C76.1 43.7 76.2 41.9 76.2 40.2C76.2 38.9 76.2 37.5 76.1 36.2C76 34.7 75.9 33.1 75.8 31.6C75.8 29.7 75.7 27.8 75.7 25.9C75.7 24.4 75.8 22.9 75.6 21.4C75.5 20.8 75.6 20.2 75.6 19.6C75.5 18.6 75.4 17.5 75.4 16.5C75.4 15.7 75.4 14.8 75.3 14C75.1 13.1 75.2 12.2 75.5 11.3C75.7 10.7 75.8 10.2 75.7 9.70004ZM2 10.5V11C2 11.8 2.1 12.6 2.1 13.5C2.1 14.6 2 15.7 2.1 16.8C2.2 19 2.2 21.1 2.2 23.3C2.2 24.7 2.1 26.1 2 27.6C1.9 29.4 1.9 31.3 2 33.1L2.3 37.3V38.9C2.4 40.3 2.5 41.7 2.5 43C2.5 44.5 2.4 46 2.4 47.5C2.4 49.1 2.4 50.7 2.2 52.2C2.1 53.2 2 54.2 2 55.2C2 56.9 2.1 58.6 2.1 60.4C2.1 61.4 2.2 62.4 2.2 63.3C2 64.9 2 66.4 2.1 68C2.3 69.4 2.1 70.8 2.2 72.2V73.8C2.6 73.4 3 73.1 3.3 72.8C4 72.1 4.8 71.4 5.6 70.8C6.6 70.1 7.6 69.4 8.5 68.5C8.8 68.2 9.2 68 8.9 67.4V67C8.8 65.5 8.9 64 8.7 62.6C8.6 61.3 8.5 59.9 8.5 58.6C8.5 56.5 8.3 54.3 8.3 52.2C8.3 50.4 8.4 48.6 8.4 46.8V42.2V40.1C8.3 38.9 8.2 37.8 8.3 36.6C8.3 35.4 8.3 34.2 8.2 33.1C8.1 32.4 8.1 31.7 8.1 31.1C8.1 30.7 8.2 30.2 8.2 29.8V28.3V26.6C8.2 25.9 8.1 25.1 8.2 24.4V23.2C8.2 22.5 8.1 21.8 8.1 21.1V19V17.3C8.2 16.8 8 16.3 7.5 16C6.7 15.5 6.1 15 5.5 14.3C4.8 13.4 4 12.6 3.1 11.8C2.8 11.2 2.4 10.9 2 10.5ZM9.6 65V67.2C9.6 67.9 9.7 67.9 10.3 68H10.5C11.1 68 11.7 67.8 12.4 67.8C14.3 67.9 16.2 67.9 18.1 67.9C19.9 67.9 21.8 68 23.6 67.9C25.7 67.8 27.8 68 29.9 67.9C31.9 67.8 34 67.8 36 67.7C37.6 67.7 39.1 67.8 40.7 67.8H43.3C45.6 67.9 47.9 67.8 50.2 67.6C51.6 67.4 53.1 67.4 54.5 67.5C55.1 67.6 55.7 67.7 56.2 67.7C57.3 67.7 58.5 67.8 59.6 67.8C61.1 67.7 62.5 67.9 64 67.8C65.4 67.7 66.9 67.7 68.3 67.7C68.6 67.7 68.8 67.6 68.8 67.3C68.9 66.2 69.2 65.1 69.4 64C69.6 62.5 69.7 61 69.7 59.5C69.7 58 69.6 56.6 69.6 55.1C69.6 52.4 69.5 49.7 69.4 47C69.4 45.7 69.5 44.5 69.5 43.2C69.6 42.3 69.6 41.3 69.5 40.4C69.4 39.9 69.3 39.5 69.3 39C69.2 37.7 69.2 36.5 69.2 35.2V33.8L68.9 30.8C68.8 29.7 69 28.5 69 27.4C69 23.6 68.9 19.8 68.5 16C68.4 15.1 68.4 15.1 67.5 15.1C64.8 15.2 62.1 15.1 59.3 15.1C57.2 15.1 55.1 15.1 53 15.2C51.2 15.3 49.3 15.3 47.5 15.3C46.2 15.3 45 15.4 43.7 15.4C42.4 15.4 41.2 15.5 40 15.5C38.2 15.4 36.5 15.3 34.7 15.4C31.7 15.5 28.7 15.4 25.7 15.6C24.6 15.7 23.5 15.6 22.4 15.7C21 15.8 19.5 15.9 18.1 15.9C17.4 15.9 16.7 15.9 15.9 16C13.9 16.1 12 16.2 10 16.1C9.7 16.1 9.4 16.1 9.2 16C8.9 16 8.8 16.1 8.8 16.4V21.1C8.9 23.3 8.9 25.6 8.9 27.8C9 29.3 8.7 30.8 8.9 32.3C9.2 35 9 37.8 9.2 40.5C9.3 41.6 9.2 42.7 9.2 43.8V49.6C9.1 51 9.2 52.5 9.2 53.9C9.2 55.3 9.4 56.7 9.4 58.1C9.5 60.2 9.6 62.6 9.6 65ZM2.1 8.80004C2.9 8.80004 3.6 8.60004 4.4 8.50004C5.9 8.40004 7.3 8.20004 8.8 8.20004C9.8 8.20004 10.8 8.20004 11.8 8.30004C12.2 8.30004 12.6 8.30004 13 8.10004C14.7 7.70004 16.4 7.50004 18.1 7.00004C20.2 6.30004 22.4 5.80004 24.5 5.30004C27.2 4.60004 29.8 4.00004 32.5 3.50004C33.9 3.20004 35.4 2.90004 36.9 2.80004C37.2 2.80004 37.4 2.60004 37.7 2.60004C37.9 2.60004 37.8 2.40004 37.8 2.30004C37.9 1.60004 38.4 1.00004 39.1 0.700036C39.7 0.400036 40.4 0.600036 40.9 1.10004C41.2 1.50004 41.4 2.00004 41.3 2.50004C41.3 2.60004 41.2 2.70004 41.5 2.80004C43 3.00004 44.4 3.50004 45.8 3.70004C48.8 4.30004 51.6 5.30004 54.5 6.20004L59 7.40004C59.5 7.60004 60 7.70004 60.5 7.90004C61.5 8.30004 62.6 8.40004 63.6 8.40004C66.2 8.40004 68.8 8.20004 71.3 8.30004C72.7 8.30004 74.1 8.40004 75.4 8.40004C75.6 8.40004 75.7 8.40004 75.9 8.50004C76.5 8.60004 76.5 8.70004 76.3 9.30004C76.3 9.40004 76.2 9.60004 76.2 9.70004C76.2 10.5 76.1 11.2 75.9 11.9C75.8 12.3 75.8 12.8 75.9 13.2C76.1 14.2 76.2 15.1 76.2 16.1C76.2 17.3 76.4 18.6 76.4 19.8C76.5 21.9 76.5 24.1 76.6 26.2C76.6 28.7 76.7 31.1 76.9 33.6C77 35.5 77.2 37.4 77.1 39.4C77.1 41.1 77.1 42.8 77 44.5V51.3C77 52.8 77.1 54.3 77.2 55.7V58.1C77.3 59.7 77.2 61.3 77.1 63C77 64.4 77.1 65.9 77.2 67.3C77.3 68.9 77.1 70.4 77.1 72V73.9C77.1 74.3 76.9 74.6 76.4 74.5C74.6 74.3 72.7 74.7 70.9 74.6C70.4 74.6 69.8 74.7 69.3 74.8C68.4 74.9 67.6 74.7 66.7 74.7C66.4 74.8 66.1 74.8 65.7 74.8C65.1 74.8 64.5 74.7 63.9 74.6C63.2 74.6 62.4 74.6 61.7 74.7C61.3 74.7 60.8 74.7 60.4 74.8C59.7 75 58.9 75 58.1 75H54.1C54 75 53.8 75 53.8 74.9H53.7C53.4 75.4 53 75.1 52.7 75.1C52.1 75.2 51.4 75.2 50.8 75.1H46.7C45.3 75.1 43.9 75 42.5 75.1C40.9 75.1 39.3 75.1 37.7 75.3C36.1 75.5 34.4 75.4 32.8 75.5C30 75.6 27.3 75.3 24.5 75.3C23.3 75.3 22.1 75.2 21 75.2C19.1 75.1 17.3 75 15.4 74.9C14 74.8 12.6 74.7 11.2 74.7C10.3 74.7 9.3 74.7 8.4 74.8C7.2 74.9 6 75.1 4.9 75.4C4.5 75.5 4.1 75.5 3.7 75.4C3.2 75.3 2.8 75.2 2.4 75C2.2 74.9 2.2 75 2.1 75.1C1.8 75.3 1.7 75.2 1.7 74.9V74.2C1.7 73.6 1.7 73 1.6 72.4C1.5 71.9 1.5 71.4 1.5 70.9C1.5 69.4 1.2 67.9 1.3 66.3C1.3 65.5 1.3 64.6 1.4 63.8C1.5 62.3 1.2 60.8 1.2 59.3C1.2 58.3 1.1 57.4 1.1 56.4C1.1 54.5 1.3 52.7 1.4 50.8C1.5 50 1.4 49.1 1.4 48.3C1.5 46.7 1.4 45 1.5 43.4C1.5 42.4 1.5 41.3 1.4 40.3C1.4 39 1.3 37.8 1.2 36.5C1 34.7 0.9 32.9 0.9 31.1C0.9 29.5 0.8 27.9 1 26.3V20.2C1 18 0.900001 15.8 1.1 13.6C1.2 12.6 1.2 11.6 1.1 10.5C1.1 10.1 0.8 9.80004 0.9 9.40004C1 8.90004 1.1 8.70004 1.7 8.70004C1.8 8.80004 2 8.80004 2.1 8.80004Z" fill="black"/>
<path d="M5.7 31.7999C5.5 32.4999 5.4 33.3 5.3 34C5.3 34.2 5.4 34.4 5.1 34.4C4.8 34.4 4.8 34.2 4.8 34C4.8 33.5 4.8 32.9999 4.9 32.5999C5 32.1999 5 31.6999 5.1 31.2999C5.1 30.9999 5.4 30.8 5.6 30.7C5.9 30.7 6.1 30.9 6.2 31.2C6.4 31.9 6.5 32.5 6.5 33.2C6.6 34.2 6.7 35.2999 6.7 36.2999C6.7 37.5999 6.9 38.7999 6.9 40.0999C6.9 41.3999 6.8 42.7 6.8 44C6.7 45 6.5 45.9 6.5 46.9C6.4 47.9 6.4 48.7999 6.4 49.7999V55C6.3 56.1 6.2 57.2 6.2 58.3C6.3 59.6 6.2 60.8999 6.3 62.1999C6.4 63.1999 6.4 64.0999 6.6 65.0999V65.6999C6.6 65.7999 6.6 65.9 6.5 65.9C6.4 65.9 6.4 65.8 6.4 65.8C6.3 64.8 6.2 63.8 6 62.8C5.8 61.9 5.8 60.9999 5.8 60.1999C5.8 59.0999 5.6 58 5.7 56.8C5.9 53.8 5.7 50.7999 5.8 47.7999C5.8 46.7999 5.9 45.8 6.1 44.9C6.2 44.1 6.2 43.3 6.2 42.5C6.3 40.3 6.1 38.1999 6 36.0999C6.1 34.3999 5.8 33.0999 5.7 31.7999ZM4.5 47.7999C4.5 50.0999 4.6 52.6999 4.6 55.1999C4.6 56.6999 4.7 58.3 4.6 59.8C4.5 61.4 4.5 62.9999 4.5 64.5999C4.5 65.3999 4.8 66.2 4.8 67C4.8 68.1 4.6 69.1 4 70C3.9 70.2 3.8 70.2999 3.6 70.1999C3.4 70.0999 3.5 69.9 3.6 69.8C4 69 4.2 68.0999 4.2 67.1999C4.2 66.8999 4.2 66.6 4.1 66.3C3.9 65.3 3.8 64.3 3.9 63.4C4 62.1 3.9 60.8 4 59.5C4.1 58.1 4 56.5999 4 55.1999V47.5999C4 46.7999 3.9 45.9999 3.9 45.2999C3.9 45.0999 3.9 44.9 4 44.7C4 44.6 4 44.5 4.1 44.5C4.2 44.5 4.2 44.6 4.2 44.7C4.4 45.5 4.4 46.4999 4.5 47.7999Z" fill="black"/>
<path d="M7.30001 31C7.10001 30.5 7.00001 30.1 6.90001 29.6C6.80001 29.2 6.70001 28.8 6.50001 28.4C6.30001 28.1 5.90001 27.9 5.50001 27.9C5.10001 27.9 5.00001 28.1 4.90001 28.4C4.80001 28.7 4.60001 29 4.40001 29.2C4.10001 29.6 3.80001 30 3.70001 30.5C3.70001 30.6 3.60001 30.8 3.60001 30.9C3.50001 31.1 3.40001 31.4 3.10001 31.3C2.80001 31.2 2.90001 31 2.90001 30.8C2.80001 29.8 2.80001 28.9 2.90001 27.9C3.00001 26.3 2.90001 24.7 3.00001 23.2C3.10001 21.5 3.20001 19.8 3.20001 18C3.20001 17.5 3.10001 17 3.10001 16.5C3.10001 16 3.20001 15.6 3.40001 15.1C3.40001 15 3.50001 14.9 3.60001 14.9C3.80001 14.9 3.80001 15 3.80001 15.2C3.80001 15.5 3.80001 15.9 3.70001 16.2C3.70001 16.8 3.70001 17.4 3.80001 17.9C3.80001 19.2 3.80001 20.4 3.70001 21.7C3.60001 23.5 3.50001 25.3 3.50001 27.1C3.50001 28.2 3.50001 29.2 3.40001 30.3C3.60001 29.4 4.50001 28.8 4.80001 28C4.90001 27.6 5.30001 27.4 5.70001 27.5C6.10001 27.5 6.60001 27.7 6.80001 28.1C7.10001 28.6 7.30001 29.2 7.30001 29.9C7.30001 30.2 7.40001 30.6 7.30001 31Z" fill="black"/>
<path d="M5.99999 20.9C5.89999 22.1 6 23.3 6.2 24.5C6.3 24.7 6.29999 25 6.29999 25.2C6.29999 25.4 6.29999 25.5 6.09999 25.5C5.89999 25.5 5.89999 25.4 5.89999 25.2C5.89999 25 5.89999 24.8 5.79999 24.7C5.49999 23.4 5.39999 22.1 5.49999 20.8C5.49999 19.5 5.29999 18.2 4.99999 16.9C4.99999 16.8 4.89999 16.7 5.09999 16.6C5.29999 16.6 5.39999 16.6 5.49999 16.8C5.59999 17.1 5.6 17.4 5.7 17.8C6 18.9 6.09999 19.9 5.99999 20.9ZM2.89999 38.3C2.89999 37.2 3.09999 36.1 3.39999 35.1C3.39999 35 3.49999 34.9 3.49999 34.8C3.59999 34.7 3.59999 34.6 3.69999 34.6C3.79999 34.6 3.79999 34.8 3.79999 34.9C3.59999 35.7 3.49999 36.6 3.39999 37.4C3.39999 38.1 3.39999 38.9 3.59999 39.6C3.59999 39.9 3.69999 40.3 3.79999 40.6C3.89999 40.9 3.99999 41 4.29999 40.9C4.49999 40.8 4.59999 40.8 4.69999 41C4.79999 41.2 4.69999 41.3 4.49999 41.4C4.19999 41.7 3.69999 41.7 3.39999 41.4C3.29999 41.3 3.19999 41.2 3.19999 41.1C2.99999 40.7 2.99999 40.3 2.99999 39.9C3.09999 39.4 2.99999 38.9 2.89999 38.3Z" fill="black"/>
<path d="M4.90001 38.5C4.50001 38.4 4.20001 38.1 4.20001 37.7C4.20001 37.5 4.30001 37.4 4.60001 37.5C4.70001 37.5 4.70001 37.6 4.80001 37.7C5.00001 37.8 5.10001 37.9 5.10001 37.6C5.10001 37.4 5.20001 37.2 5.40001 37C5.50001 36.9 5.50001 36.9 5.60001 37C5.70001 37.1 5.60001 37.1 5.60001 37.2C5.50001 37.5 5.40001 37.9 5.30001 38.2C5.20001 38.3 5.10001 38.5 4.90001 38.5ZM73.1 13.6C73.3 13.6 73.3 13.8 73.3 13.9C72.9 15 72.6 16.2 72.4 17.4C72.3 17.8 72.3 18.2 72.3 18.7C72.3 19.7 72.1 20.8 72.1 21.8C72.1 22.6 72.1 23.4 72.2 24.2C72.3 24.9 72.2 25.7 72.2 26.4C72.2 27.2 72.2 28 72.3 28.8C72.5 29.9 72.6 31 72.6 32.1C72.6 33.4 72.7 34.6 72.9 35.9C73 36.8 73 37.7 72.9 38.6C72.8 39.3 72.7 40 72.7 40.7C72.7 41.8 72.5 43 72.4 44.1C72.3 45.4 72.3 46.7 72.5 47.9C72.6 48.3 72.8 48.7 73.1 49C73.6 49.7 74 50.4 74.4 51.1C74.5 51.4 74.6 51.7 74.6 52C74.6 52.1 74.7 52.2 74.5 52.3C74.3 52.3 74.3 52.2 74.3 52.1C74.3 51.8 74.3 51.5 74.2 51.3C73.8 50.7 73.4 50 73 49.5C72.4 48.7 72.1 47.8 72 46.8C72 45.2 72.1 43.6 72.2 42L72.5 37.5C72.5 36.5 72.4 35.6 72.3 34.6C72.2 33.5 72.2 32.3 72.1 31.2C72.1 30.5 71.9 29.8 71.8 29C71.7 28.4 71.7 27.7 71.7 27.1V24.4C71.7 23.6 71.6 22.8 71.6 22.1C71.7 20.5 71.7 18.8 71.8 17.2C71.9 16.1 72.1 15.1 72.5 14.1C72.7 13.8 72.9 13.7 73.1 13.6Z" fill="black"/>
<path d="M73.9 41C74 40 74 39 74 38.1C74.1 35.9 74.3 33.7 74.3 31.5C74.3 30.5 74.1 29.5 74 28.4C73.9 27.4 73.9 26.4 73.8 25.4C73.7 24.6 73.7 23.8 73.7 23C73.8 22.1 73.8 21.2 73.9 20.3C74 19.3 73.9 18.4 74 17.4C74 17.1 74.1 16.8 74.2 16.5C74.2 16.4 74.4 16.3 74.5 16.4C74.7 16.4 74.6 16.6 74.6 16.7C74.4 17.9 74.4 19.2 74.4 20.4C74.4 21.1 74.3 21.8 74.3 22.5C74.3 23.7 74.4 25 74.4 26.2C74.5 28 74.7 29.8 74.8 31.7C74.8 33.3 74.7 34.8 74.6 36.4C74.5 38.3 74.3 40.2 74.4 42.1C74.5 43.3 74.6 44.5 74.8 45.8C74.8 45.9 74.9 46 74.7 46C74.6 46 74.5 45.9 74.5 45.8C74.4 45.1 74.2 44.5 74.1 43.8C74 42.9 74 41.9 73.9 41ZM75.3 66.7C75.1 67.3 74.6 67.8 73.9 67.9C73 68.1 72.4 67.5 71.9 67C71.3 66.4 71 65.6 71 64.7C71 64.3 70.9 63.9 70.9 63.5C70.8 63.2 70.9 62.9 71 62.6C71.2 62 71.3 61.3 71.2 60.6C71 59.1 71.2 57.6 71.8 56.2C72 55.6 72.6 55.3 73.1 55.5C73.3 55.5 73.4 55.6 73.5 55.7C74.3 56.2 74.7 57.1 74.7 58C74.7 58.1 74.8 58.3 74.6 58.3C74.4 58.3 74.4 58.2 74.3 58L74 57.1C73.8 56.6 73.5 56.2 73.1 56C72.9 55.8 72.5 55.9 72.4 56.1C72.4 56.1 72.3 56.2 72.3 56.3C72.1 56.9 71.9 57.5 71.8 58.2C71.7 59.2 71.6 60.3 71.7 61.3C71.7 61.8 71.6 62.3 71.5 62.7C71.2 63.4 71.5 64 71.6 64.7C71.6 64.9 71.6 65.1 71.7 65.3C71.8 66.2 72.4 67.1 73.2 67.5C73.6 67.8 74.5 67.5 75 67C75 66.8 75.1 66.7 75.3 66.7ZM70.4 20.4C70.4 18.7 70.6 17.1 70.5 15.4C70.5 15.2 70.5 15 70.7 15C70.9 15 70.9 15.2 70.9 15.4C70.9 16.2 70.9 17.1 70.8 17.9C70.7 18.9 70.6 19.9 70.7 21C70.7 21.6 70.6 22.1 70.5 22.7C70.5 22.8 70.5 22.9 70.4 22.9C70.3 22.9 70.3 22.7 70.3 22.6C70.4 21.8 70.4 21.1 70.4 20.4ZM75.3 55C75 54.8 74.8 54.5 74.6 54.2C74.2 53.5 73.3 53 72.5 53.2C72.2 53.2 72 53.4 71.9 53.6C71.7 54 71.6 54.4 71.6 54.8C71.6 54.9 71.5 55.1 71.4 55.1C71.2 55.1 71.2 54.9 71.2 54.8C71.1 54.4 71.2 54.1 71.3 53.7C71.6 52.9 72.4 52.5 73.2 52.8C74.2 53.1 75 53.8 75.3 54.8V55Z" fill="black"/>
<path d="M73 61.7C73 62.4 73.1 63.1 73.3 63.7C73.5 64.2 73.6 64.3 74.1 64.1C74.2 64.1 74.3 64 74.4 64.1C74.5 64.3 74.3 64.3 74.2 64.3C73.5 64.6 73.4 64.5 73.1 64C72.8 63.5 72.7 62.9 72.7 62.3C72.6 61.8 72.6 61.3 72.7 60.8C72.9 60.1 73.4 60 73.9 60.5C74.2 60.8 74.4 61.1 74.5 61.5V61.8C74.4 61.9 74.3 61.7 74.3 61.6C74.1 61.3 73.9 61.1 73.7 60.9C73.6 60.8 73.5 60.6 73.3 60.7C73.1 60.8 73 61 73 61.2V61.7ZM71.8 51.3V51.8C71.8 51.9 71.9 52.1 71.7 52.1C71.5 52.1 71.5 51.9 71.5 51.8V50.8C71.5 50.6 71.5 50.4 71.4 50.2C71.4 50.2 71.3 50.1 71.4 50C71.5 49.9 71.5 50 71.6 50.1C71.8 50.4 71.9 50.9 71.8 51.3ZM74.8 69.2C75 69.3 75.2 69.5 75.2 69.7C75.4 70.1 75.5 70.4 75.5 70.8C75.5 70.9 75.5 71.1 75.3 71.1C75.1 71.1 75.2 70.9 75.2 70.8C75.2 70.3 75 69.7 74.8 69.2ZM68.4 13.4C67 13.2 65.6 13.2 64.2 13.2C62.7 13.3 61.2 13.1 59.6 13.1C58.5 13.1 57.4 13.3 56.3 13.3C55.2 13.3 54.2 13.2 53.1 13.2C52.3 13.1 51.5 13 50.7 13C49.8 12.9 49 12.6 48.2 12.3C46.7 11.6 45.1 11.4 43.5 11.6C41.9 11.8 40.2 11.8 38.6 12C37 12.2 35.4 12.2 33.8 12.4C32.8 12.5 31.8 12.5 30.8 12.4H29.5C28.3 12.3 27.1 12.4 25.9 12.7C24.8 12.9 23.8 12.9 22.7 13C21.9 13.1 21.1 13.3 20.3 13.5C19.3 13.8 18.3 13.7 17.3 13.9C16.2 14.1 15.1 14.2 14 14.1C13.1 14.1 12.3 13.9 11.4 13.7C11.2 13.7 10.9 13.6 10.7 13.5C10.5 13.5 10.3 13.4 10.4 13.2C10.4 13 10.7 12.8 10.9 12.9C11.2 12.9 11.5 13 11.8 13.1C13.7 13.6 15.7 13.6 17.6 13.2C18.2 13.1 18.9 13.1 19.5 13C20.4 12.8 21.2 12.6 22.1 12.4C23.2 12.2 24.3 12.1 25.3 12C26.3 11.8 27.3 11.7 28.3 11.7H33.2C33.9 11.7 34.5 11.6 35.2 11.6C37.3 11.6 39.4 11.3 41.5 11.2C42.8 11.1 44.1 11 45.5 11C46.5 11.1 47.6 11.4 48.5 11.8C49.1 12.1 49.8 12.3 50.5 12.4C52.6 12.7 54.7 12.9 56.8 12.8C57.8 12.7 58.9 12.7 59.9 12.7C62.1 12.9 64.2 12.8 66.4 12.9C67.2 12.9 68 13.1 68.8 13.2C68.9 13.2 68.9 13.2 68.9 13.3C68.9 13.4 68.9 13.4 68.8 13.4H68.4ZM16.6 11.3C15.6 11.4 14.7 11.1 13.7 11.1C12.3 11.1 11 11 9.60001 10.8C8.70001 10.7 7.80001 10.8 7.00001 11C6.80001 11 6.60001 11.2 6.70001 11.4V11.6C6.90001 11.9 7.10001 12.1 7.50001 12.2C7.60001 12.3 7.80001 12.3 7.90001 12.4C8.00001 12.5 8.00001 12.5 8.00001 12.6C8.00001 12.7 7.9 12.8 7.8 12.8C7 12.8 6.30001 12.2 6.10001 11.4C6.10001 10.9 6.50001 10.5 7.00001 10.5C8.20001 10.3 9.40001 10.3 10.6 10.5C11.9 10.7 13.1 10.7 14.4 10.8C15.2 10.9 15.9 11 16.7 11C17.5 11 18.3 10.9 19.1 10.7C19.8 10.6 20.5 10.6 21.2 10.6C21.4 10.6 21.7 10.7 21.9 10.5C21.9 10.5 22 10.4 22.1 10.5C22.2 10.6 22.1 10.7 22.1 10.7C21.9 10.9 21.7 10.9 21.4 10.9C20.2 10.8 18.9 11 17.8 11.4C17.3 11.4 16.9 11.4 16.6 11.3Z" fill="black"/>
<path d="M32.8 13.1C34.1 13.1 35.4 13.3 36.8 13.3C37.7 13.3 38.6 13.1 39.4 13.1C40.5 13.1 41.6 12.9 42.7 13C43.3 13 44 12.9 44.6 12.8C45.3 12.7 46.1 12.8 46.8 13.1C46.9 13.1 47 13.2 47 13.3V13.5H46.9C46.2 13.1 45.3 13.1 44.5 13.2C44 13.3 43.5 13.4 42.9 13.4C41.5 13.4 40.1 13.6 38.7 13.7C37.3 13.9 35.9 13.9 34.5 13.8C33.5 13.7 32.6 13.7 31.6 13.7C31.4 13.7 31.2 13.8 31.2 13.5C31.2 13.2 31.4 13.3 31.6 13.2C32 13.1 32.4 13.1 32.8 13.1ZM57.7 11.4L59.8 11.1C60.4 11 61.1 10.9 61.7 10.8C62.7 10.7 63.6 10.5 64.6 10.4C65.4 10.2 66.2 10.1 67 10.2C67.4 10.2 67.8 10.4 68.2 10.4C68.7 10.5 69.2 10.4 69.7 10.3C70.1 10.3 70.4 10.2 70.8 10.3C71 10.3 71 10.4 71.1 10.5C71.1 10.6 71.1 10.7 71 10.8C70.9 11 70.8 10.8 70.7 10.8C70.4 10.7 70.1 10.8 69.8 10.9C69 11 68.1 11 67.3 10.7C66.6 10.5 65.8 10.5 65.1 10.7C64.1 10.8 63.2 11 62.2 11.1C60.7 11.3 59.3 11.4 57.8 11.6C57.1 11.7 56.4 11.8 55.7 11.8H55.4C55.3 11.8 55.3 11.7 55.3 11.7C55.3 11.6 55.3 11.6 55.4 11.6C55.9 11.6 56.3 11.5 56.8 11.5C57.1 11.4 57.4 11.4 57.7 11.4ZM13.2 70.4C14.1 70.2 14.9 70.6 15.9 70.6C17.3 70.6 18.7 70.7 20.1 70.7C21.1 70.8 22 70.6 22.9 70.3C23.8 70.1 24.8 70.4 25.3 71.2C25.7 71.8 26.3 72.1 27 72.1C27.7 72.2 28.4 72.1 29 71.7C30.3 70.9 31.7 70.3 33.2 70.1C34.2 70 35.1 70.1 36.1 70.2C36.4 70.2 36.7 70.3 37.1 70.2C38.4 70.2 39.7 70.4 41 70.7C41.7 70.8 42.4 70.9 43 71C44.2 71.1 45.4 71.2 46.6 71.2C47.7 71.2 48.9 71 50 70.8C50.8 70.7 51.6 70.6 52.5 70.7C54.2 70.7 56 70.6 57.7 70.3C60 70 62.3 69.9 64.6 70.2H66.3C67.3 70.1 68.4 70.5 69.4 70.4H69.7C69.9 70.4 70 70.5 70 70.6C70 70.8 69.8 70.7 69.7 70.7C69 70.8 68.2 70.8 67.5 70.7H66.5C65.2 70.8 63.9 70.7 62.6 70.6C61.2 70.5 59.8 70.6 58.4 70.8C56.7 71 55 71.2 53.2 71.3C52.2 71.3 51.1 71.3 50.1 71.4C48.8 71.7 47.5 71.8 46.2 71.7C44.1 71.6 42.1 71.4 40 71C38.8 70.8 37.6 70.7 36.3 70.7C35.3 70.6 34.4 70.6 33.4 70.6C32 70.8 30.6 71.3 29.4 72C28.3 72.7 26.8 72.8 25.6 72.2C25.3 72.1 25.1 71.9 24.9 71.6C24.4 70.8 23.4 70.4 22.6 70.8C21.4 71.1 20.2 71.2 19 71C17.9 71 16.8 70.9 15.7 70.9C15.4 70.9 15.1 70.9 14.8 70.8C13.7 70.6 12.6 70.5 11.5 70.6C11.4 70.6 11.3 70.7 11.2 70.8C11.1 70.9 11 70.9 11 70.8L10.9 70.7C10.8 70.6 10.7 70.5 10.9 70.3C11.1 70.1 11.4 70 11.7 70C12.2 70.4 12.7 70.4 13.2 70.4ZM49.8 73.2C50.5 73.1 51.2 73 51.8 72.9C52.6 72.8 53.5 72.7 54.3 72.5C55.1 72.3 56 72.3 56.8 72.3C58.6 72.5 60.3 72.4 62.1 72.5C63.1 72.5 64.1 72.5 65.2 72.4C65.7 72.4 66.3 72.5 66.8 72.5C68.1 72.6 69.4 72.7 70.7 72.7C71.1 72.7 71.4 72.5 71.7 72.4C71.8 72.4 71.9 72.4 72 72.3C72.1 72.3 72.3 72.2 72.3 72.4C72.3 72.6 72.2 72.6 72.1 72.6C71.4 72.9 70.7 73.1 70 73.1C68.7 73 67.3 73 66 72.9C65 72.9 64.1 72.9 63.1 73C62.4 73 61.7 73 61 72.9C60.2 72.8 59.4 72.9 58.6 72.8C58.1 72.8 57.5 72.7 57 72.7C56 72.6 55 72.6 54.1 72.8C53.4 72.9 52.7 73 51.9 73.1C51.3 73.2 50.7 73.2 50.2 73.3C50 73.4 49.8 73.3 49.8 73.2Z" fill="black"/>
<path d="M21.9 72.1C21.7 72.5 21.4 72.4 21.2 72.4H18.3L15.3 72.7C14.3 72.8 13.2 72.8 12.2 72.7C10.9 72.6 9.50001 72.6 8.20001 72.9C7.80001 73 7.40001 73 7.10001 72.8C6.90001 72.7 6.80001 72.6 6.90001 72.5C7.00001 72.3 7.10001 72.4 7.20001 72.5C7.60001 72.6 7.90001 72.5 8.30001 72.4C9.80001 72.2 11.3 72.1 12.7 72.3C13.9 72.4 15.2 72.4 16.4 72.2C17.7 72 19 72 20.4 72C20.9 72.1 21.4 72.1 21.9 72.1ZM34.3 72.4C34.7 72.4 35.1 72.4 35.5 72.3C36 72.3 36.5 72.4 37 72.5C37.4 72.6 37.7 72.6 38.1 72.6C38.8 72.6 39.5 72.7 40.1 72.8C40.4 72.8 40.7 72.8 40.9 72.9C41 72.9 41.1 72.9 41.1 73C41.1 73.1 41 73.1 41 73.1C40.7 73.3 40.4 73.3 40.1 73.2C39.4 73.1 38.7 73.1 38 73.1L35.9 72.8C34.4 72.6 32.8 72.8 31.3 73.2C31.2 73.2 31.2 73.3 31.1 73.3C31 73.3 30.9 73.3 30.9 73.2C30.9 73.1 31 73.1 31.1 73.1C32.1 72.7 33.2 72.4 34.3 72.4ZM27.6 71.4C27.3 71.4 27.1 71.4 26.9 71.3C26.7 71.2 26.6 71 26.6 70.8C26.6 70.7 26.7 70.5 26.8 70.5C26.9 70.5 26.9 70.6 26.9 70.7C26.9 70.9 27 70.9 27.2 71C27.6 71.1 28.1 71 28.5 70.7C28.7 70.6 28.6 70.5 28.5 70.4C28.3 70.2 27.9 70.1 27.6 70.1C27.5 70.1 27.3 70.1 27.3 69.9C27.3 69.7 27.4 69.6 27.6 69.6C27.9 69.5 28.3 69.6 28.5 69.8C28.8 70 29.3 70.1 29.2 70.6C29.2 71.1 28.7 71.2 28.4 71.4H27.6ZM51.9 69.8C51.9 70 51.8 70 51.7 70C51.1 69.9 50.4 69.9 49.8 70.1C49 70.2 48.2 70.3 47.4 70.3H46.4C46.3 70.3 46.1 70.3 46.1 70.1C46.1 70 46.2 69.9 46.3 69.9H48.7C49.4 69.9 50.1 69.7 50.7 69.6C51 69.5 51.3 69.6 51.6 69.7C51.8 69.6 51.8 69.7 51.9 69.8ZM10.2 70.2C10.3 69.8 10.6 69.8 10.9 69.8C11.6 69.6 12.3 69.5 13.1 69.4H13.4C13.5 69.4 13.6 69.4 13.6 69.5C13.6 69.6 13.5 69.6 13.4 69.7L11.6 70C11.1 70 10.6 70.1 10.2 70.2Z" fill="black"/>
</svg>
